<svg xmlns="http://www.w3.org/2000/svg" viewBox="0 0 64 64">
  <rect x="3" y="3" width="58" height="58" rx="18" fill="#1c2230"/>
  <path d="M16 10V54M27 10V54M38 10V54M49 10V54M10 16H54M10 27H54M10 38H54M10 49H54" fill="none" stroke="#fff" stroke-opacity=".09"/>
  <path d="M13 46c5 0 6-10 11-10s6 6 11 6c6 0 6-21 14-21h4" fill="none" stroke="#91a0ff" stroke-width="5" stroke-linecap="round" stroke-linejoin="round"/>
  <rect x="9" y="42" width="8" height="8" rx="2" fill="#f7f7f9"/>
  <rect x="31" y="38" width="8" height="8" rx="2" fill="#ed6548"/>
  <rect x="45" y="17" width="8" height="8" rx="2" fill="#91a0ff"/>
  <circle cx="55" cy="21" r="3.5" fill="#ed6548"/>
</svg>
