<svg xmlns="http://www.w3.org/2000/svg" viewBox="0 0 64 64">
  <defs>
    <linearGradient id="a" x1="8" y1="4" x2="56" y2="60" gradientUnits="userSpaceOnUse">
      <stop stop-color="#0f172a"/>
      <stop offset="1" stop-color="#122c3a"/>
    </linearGradient>
    <linearGradient id="b" x1="14" y1="14" x2="50" y2="50" gradientUnits="userSpaceOnUse">
      <stop stop-color="#2dd4bf"/>
      <stop offset="1" stop-color="#008c8f"/>
    </linearGradient>
  </defs>
  <rect x="2" y="2" width="60" height="60" rx="16" fill="url(#a)"/>
  <path d="M14 16H50M14 27H50M14 38H50M14 49H50M16 14V50M27 14V50M38 14V50M49 14V50" stroke="#fff" stroke-opacity=".08"/>
  <g fill="url(#b)">
    <rect x="15" y="15" width="8" height="8" rx="2.25"/>
    <rect x="26" y="15" width="8" height="8" rx="2.25"/>
    <rect x="37" y="15" width="8" height="8" rx="2.25"/>
    <rect x="15" y="26" width="8" height="8" rx="2.25"/>
    <rect x="15" y="37" width="8" height="8" rx="2.25"/>
    <rect x="26" y="37" width="8" height="8" rx="2.25"/>
    <rect x="37" y="37" width="8" height="8" rx="2.25"/>
  </g>
  <rect x="37" y="26" width="8" height="8" rx="2.25" fill="#f8fafc"/>
  <circle cx="49" cy="15" r="3" fill="#f59e0b"/>
</svg>
